<svg width="510" height="442" viewBox="0 0 510 442" fill="none" xmlns="http://www.w3.org/2000/svg">
<g filter="url(#filter0_d_11349_9363)">
<path d="M75.1094 365.625H18.8907C18.1917 365.625 17.625 366.192 17.625 366.891L17.625 423.109C17.625 423.808 18.1916 424.375 18.8906 424.375H75.1094C75.8083 424.375 76.375 423.808 76.375 423.109V366.891C76.375 366.192 75.8083 365.625 75.1094 365.625Z" fill="#F94E4B"/>
</g>
<g filter="url(#filter1_d_11349_9363)">
<path fill-rule="evenodd" clip-rule="evenodd" d="M346.552 85.3617H47.3259V59.8906C47.3259 54.3653 52.0414 49.8855 57.8575 49.8855H336.02C341.837 49.8855 346.552 54.3653 346.552 59.8906V85.3617Z" fill="#253368"/>
<path fill-rule="evenodd" clip-rule="evenodd" d="M336.02 343.732H57.8575C52.0414 343.732 47.3259 339.046 47.3259 333.265V84.0281H346.552V333.265C346.552 339.046 341.837 343.732 336.02 343.732Z" fill="#E4EBF7"/>
<path fill-rule="evenodd" clip-rule="evenodd" d="M71.8748 67.5258C71.8748 71.1187 68.9437 74.0316 65.3281 74.0316C61.7129 74.0316 58.7822 71.1187 58.7822 67.5258C58.7822 63.933 61.7129 61.02 65.3281 61.02C68.9437 61.02 71.8748 63.933 71.8748 67.5258Z" fill="#FF7946"/>
<path fill-rule="evenodd" clip-rule="evenodd" d="M94.7868 67.5258C94.7868 71.1187 91.856 74.0316 88.2403 74.0316C84.625 74.0316 81.6942 71.1187 81.6942 67.5258C81.6942 63.933 84.625 61.02 88.2403 61.02C91.856 61.02 94.7868 63.933 94.7868 67.5258Z" fill="#F94E4B"/>
<path fill-rule="evenodd" clip-rule="evenodd" d="M120.972 67.5258C120.972 71.1187 118.041 74.0316 114.425 74.0316C110.81 74.0316 107.879 71.1187 107.879 67.5258C107.879 63.933 110.81 61.02 114.425 61.02C118.041 61.02 120.972 63.933 120.972 67.5258Z" fill="#7CB305"/>
<path fill-rule="evenodd" clip-rule="evenodd" d="M80.0636 309.867C78.2523 309.867 76.7845 308.398 76.7845 306.586V116.348C76.7845 114.536 78.2523 113.066 80.0636 113.066H317.355C319.166 113.066 320.634 114.536 320.634 116.348V306.586C320.634 308.398 319.166 309.867 317.355 309.867H80.0636Z" fill="white"/>
<path fill-rule="evenodd" clip-rule="evenodd" d="M217.163 229.322V281.112C217.163 284.036 214.758 286.431 211.819 286.431H111.664C108.725 286.431 106.317 284.036 106.317 281.112V229.322C106.317 226.395 108.725 224.003 111.664 224.003H211.819C214.758 224.003 217.163 226.395 217.163 229.322Z" fill="#FAAD14"/>
<path fill-rule="evenodd" clip-rule="evenodd" d="M293.191 197.493C293.191 200.417 290.786 202.812 287.846 202.812H111.664C108.725 202.812 106.317 200.417 106.317 197.493V145.7C106.317 142.776 108.725 140.384 111.664 140.384H287.846C290.786 140.384 293.191 142.776 293.191 145.7V197.493Z" fill="#F94E4B"/>
<path fill-rule="evenodd" clip-rule="evenodd" d="M293.061 281.112C293.061 284.036 290.655 286.431 287.716 286.431H242.182C239.242 286.431 236.837 284.036 236.837 281.112V229.322C236.837 226.395 239.242 224.003 242.182 224.003H287.716C290.655 224.003 293.061 226.395 293.061 229.322V281.112Z" fill="#FF7946"/>
</g>
<g filter="url(#filter2_d_11349_9363)">
<path d="M429 267.4C467.881 267.4 499.4 235.881 499.4 197C499.4 158.119 467.881 126.6 429 126.6C390.119 126.6 358.6 158.119 358.6 197C358.6 235.881 390.119 267.4 429 267.4Z" fill="#F94E4B"/>
<path d="M429 262.372C465.104 262.372 494.372 233.104 494.372 197C494.372 160.896 465.104 131.628 429 131.628C392.896 131.628 363.628 160.896 363.628 197C363.628 233.104 392.896 262.372 429 262.372Z" fill="#A3B5D6"/>
<path d="M429 260.015C463.802 260.015 492.015 231.802 492.015 197C492.015 162.198 463.802 133.985 429 133.985C394.198 133.985 365.985 162.198 365.985 197C365.985 231.802 394.198 260.015 429 260.015Z" fill="white"/>
<path d="M429 156.916C430.389 156.916 431.514 158.041 431.514 159.43V195.157H426.486V159.43C426.486 158.041 427.611 156.916 429 156.916Z" fill="#253368"/>
<path d="M454.602 197C454.602 198.389 453.476 199.514 452.088 199.514H429V194.486H452.088C453.476 194.486 454.602 195.611 454.602 197Z" fill="#253368"/>
<path d="M429 202.814C432.211 202.814 434.814 200.211 434.814 197C434.814 193.789 432.211 191.186 429 191.186C425.789 191.186 423.186 193.789 423.186 197C423.186 200.211 425.789 202.814 429 202.814Z" fill="#FF7946"/>
<path d="M431.508 144.2C431.508 142.811 430.382 141.685 428.994 141.685C427.605 141.685 426.479 142.811 426.479 144.2V149.228C426.479 150.617 427.605 151.743 428.994 151.743C430.382 151.743 431.508 150.617 431.508 149.228V144.2Z" fill="#E4EBF7"/>
<path d="M389.882 157.89C390.864 156.908 392.456 156.908 393.438 157.89L396.994 161.446C397.975 162.427 397.975 164.019 396.994 165.001C396.012 165.983 394.42 165.983 393.438 165.001L389.882 161.446C388.9 160.464 388.9 158.872 389.882 157.89Z" fill="#E4EBF7"/>
<path d="M373.685 197.006C373.685 195.618 374.811 194.492 376.2 194.492H381.228C382.617 194.492 383.743 195.618 383.743 197.006C383.743 198.395 382.617 199.521 381.228 199.521H376.2C374.811 199.521 373.685 198.395 373.685 197.006Z" fill="#E4EBF7"/>
<path d="M389.891 236.118C388.909 235.136 388.909 233.545 389.891 232.563L393.446 229.007C394.428 228.025 396.02 228.025 397.002 229.007C397.984 229.989 397.984 231.581 397.002 232.563L393.446 236.118C392.464 237.1 390.873 237.1 389.891 236.118Z" fill="#E4EBF7"/>
<path d="M426.492 249.8C426.492 251.189 427.618 252.315 429.006 252.315C430.395 252.315 431.521 251.189 431.521 249.8V244.772C431.521 243.383 430.395 242.257 429.006 242.257C427.618 242.257 426.492 243.383 426.492 244.772V249.8Z" fill="#E4EBF7"/>
<path d="M468.118 236.109C467.136 237.091 465.544 237.091 464.562 236.109L461.006 232.553C460.024 231.571 460.024 229.979 461.006 228.997C461.988 228.015 463.58 228.015 464.562 228.997L468.118 232.553C469.099 233.535 469.099 235.127 468.118 236.109Z" fill="#E4EBF7"/>
<path d="M484.315 196.994C484.315 198.382 483.189 199.508 481.8 199.508H476.772C475.383 199.508 474.257 198.382 474.257 196.994C474.257 195.605 475.383 194.479 476.772 194.479H481.8C483.189 194.479 484.315 195.605 484.315 196.994Z" fill="#E4EBF7"/>
<path d="M468.11 157.883C469.092 158.865 469.092 160.457 468.11 161.439L464.554 164.994C463.572 165.976 461.98 165.976 460.998 164.994C460.016 164.012 460.016 162.421 460.998 161.439L464.554 157.883C465.536 156.901 467.128 156.901 468.11 157.883Z" fill="#E4EBF7"/>
</g>
<defs>
<filter id="filter0_d_11349_9363" x="-4" y="348" width="102" height="102" filterUnits="userSpaceOnUse" color-interpolation-filters="sRGB">
<feFlood flood-opacity="0" result="BackgroundImageFix"/>
<feColorMatrix in="SourceAlpha" type="matrix" values="0 0 0 0 0 0 0 0 0 0 0 0 0 0 0 0 0 0 127 0" result="hardAlpha"/>
<feOffset dy="4"/>
<feGaussianBlur stdDeviation="2"/>
<feComposite in2="hardAlpha" operator="out"/>
<feColorMatrix type="matrix" values="0 0 0 0 0 0 0 0 0 0 0 0 0 0 0 0 0 0 0.25 0"/>
<feBlend mode="normal" in2="BackgroundImageFix" result="effect1_dropShadow_11349_9363"/>
<feBlend mode="normal" in="SourceGraphic" in2="effect1_dropShadow_11349_9363" result="shape"/>
</filter>
<filter id="filter1_d_11349_9363" x="-4" y="0" width="402" height="402" filterUnits="userSpaceOnUse" color-interpolation-filters="sRGB">
<feFlood flood-opacity="0" result="BackgroundImageFix"/>
<feColorMatrix in="SourceAlpha" type="matrix" values="0 0 0 0 0 0 0 0 0 0 0 0 0 0 0 0 0 0 127 0" result="hardAlpha"/>
<feOffset dy="4"/>
<feGaussianBlur stdDeviation="2"/>
<feComposite in2="hardAlpha" operator="out"/>
<feColorMatrix type="matrix" values="0 0 0 0 0 0 0 0 0 0 0 0 0 0 0 0 0 0 0.25 0"/>
<feBlend mode="normal" in2="BackgroundImageFix" result="effect1_dropShadow_11349_9363"/>
<feBlend mode="normal" in="SourceGraphic" in2="effect1_dropShadow_11349_9363" result="shape"/>
</filter>
<filter id="filter2_d_11349_9363" x="344" y="116" width="170" height="170" filterUnits="userSpaceOnUse" color-interpolation-filters="sRGB">
<feFlood flood-opacity="0" result="BackgroundImageFix"/>
<feColorMatrix in="SourceAlpha" type="matrix" values="0 0 0 0 0 0 0 0 0 0 0 0 0 0 0 0 0 0 127 0" result="hardAlpha"/>
<feOffset dy="4"/>
<feGaussianBlur stdDeviation="2"/>
<feComposite in2="hardAlpha" operator="out"/>
<feColorMatrix type="matrix" values="0 0 0 0 0 0 0 0 0 0 0 0 0 0 0 0 0 0 0.25 0"/>
<feBlend mode="normal" in2="BackgroundImageFix" result="effect1_dropShadow_11349_9363"/>
<feBlend mode="normal" in="SourceGraphic" in2="effect1_dropShadow_11349_9363" result="shape"/>
</filter>
</defs>
</svg>
