<svg width="526" height="388" viewBox="0 0 526 388" fill="none" xmlns="http://www.w3.org/2000/svg">
<path d="M447.342 40.0471H334.487C331.425 40.0471 328.943 42.5292 328.943 45.591V203.309H429.761C429.761 220.241 444.239 232.073 461.199 231.986C477.868 231.902 491.503 217.772 491.503 201.106V83.9915H462.077C457.383 83.9915 447.342 73.7169 447.342 69.0254V40.0471Z" fill="#E4EBF7"/>
<path d="M429.982 202.813H314.354C314.354 217.939 325.356 228.874 339.791 231.297L344.873 231.722L460.732 231.491C443.879 231.491 429.553 218.548 429.982 202.813Z" fill="#EF3D48"/>
<path d="M378.655 54.8401H353.412C352.218 54.8401 351.25 55.8081 351.25 57.0022V82.2453C351.25 83.4394 352.218 84.4074 353.412 84.4074H378.655C379.85 84.4074 380.818 83.4394 380.818 82.2453V57.0022C380.818 55.8081 379.85 54.8401 378.655 54.8401Z" fill="#F94E4B"/>
<path d="M459.915 98.96H353.362C352.167 98.96 351.199 99.928 351.199 101.122V104.19C351.199 105.384 352.167 106.352 353.362 106.352H459.915C461.109 106.352 462.077 105.384 462.077 104.19V101.122C462.077 99.928 461.109 98.96 459.915 98.96Z" fill="#F94E4B"/>
<path d="M459.915 121.216H353.362C352.167 121.216 351.199 122.184 351.199 123.378V126.446C351.199 127.64 352.167 128.608 353.362 128.608H459.915C461.109 128.608 462.077 127.64 462.077 126.446V123.378C462.077 122.184 461.109 121.216 459.915 121.216Z" fill="#F94E4B"/>
<path d="M459.915 143.473H353.362C352.167 143.473 351.199 144.441 351.199 145.635V148.702C351.199 149.896 352.167 150.864 353.362 150.864H459.915C461.109 150.864 462.077 149.896 462.077 148.702V145.635C462.077 144.441 461.109 143.473 459.915 143.473Z" fill="#F94E4B"/>
<path opacity="0.6" d="M447.328 76.9209V82.6958C447.328 83.9367 447.844 85.1217 448.754 85.9659C449.663 86.8101 450.884 87.2373 452.121 87.1447L491.653 84.2042L447.328 76.9209Z" fill="#CCD7EE"/>
<path d="M470.243 62.0517L447.279 39.9062L447.339 82.3492C447.339 83.3698 448.167 84.1972 449.187 84.1972H491.653L470.243 62.0517Z" fill="#FAAD14"/>
<path fill-rule="evenodd" clip-rule="evenodd" d="M81.4493 316.783L71.1611 306.495L153.48 224.175L163.769 234.463L81.4493 316.783Z" fill="#A3B5D6"/>
<path fill-rule="evenodd" clip-rule="evenodd" d="M238.428 242.273C187.199 242.273 145.671 200.744 145.671 149.516C145.671 98.2885 187.199 56.7601 238.428 56.7601C289.655 56.7601 331.184 98.2885 331.184 149.516C331.184 200.744 289.655 242.273 238.428 242.273ZM238.428 25.8413C170.123 25.8413 114.753 81.2122 114.753 149.516C114.753 217.82 170.123 273.191 238.428 273.191C306.731 273.191 362.103 217.82 362.103 149.516C362.103 81.2122 306.731 25.8413 238.428 25.8413Z" fill="#F94E4B"/>
<path fill-rule="evenodd" clip-rule="evenodd" d="M172.856 149.516C172.856 113.303 202.213 83.9453 238.428 83.9453C274.641 83.9453 303.998 113.303 303.998 149.516C303.998 185.73 274.641 215.088 238.428 215.088C202.213 215.088 172.856 185.73 172.856 149.516Z" fill="#F94E4B"/>
<path fill-rule="evenodd" clip-rule="evenodd" d="M238.428 185.891C218.338 185.891 202.053 169.606 202.053 149.516C202.053 129.427 218.338 113.141 238.428 113.141C258.517 113.141 274.803 129.427 274.803 149.516C274.803 169.606 258.517 185.891 238.428 185.891Z" fill="white"/>
<path fill-rule="evenodd" clip-rule="evenodd" d="M41.5771 356.655L31.289 346.367C28.448 343.525 28.448 338.919 31.289 336.078L103.57 263.797C106.411 260.956 111.017 260.956 113.858 263.797C113.858 263.797 113.858 263.797 113.858 263.797L124.146 274.086C126.988 276.927 126.988 281.533 124.146 284.374L51.8654 356.655C49.0244 359.496 44.4182 359.496 41.5771 356.655C41.5771 356.655 41.5771 356.655 41.5771 356.655Z" fill="#F94E4B"/>
<path d="M316.547 281.188H268.453C267.754 281.188 267.188 281.754 267.188 282.453L267.187 330.547C267.187 331.246 267.754 331.812 268.453 331.812H316.547C317.246 331.812 317.812 331.246 317.812 330.547V282.453C317.812 281.754 317.246 281.188 316.547 281.188Z" fill="#F94E4B"/>
</svg>
